<?xml version="1.0" standalone="no"?>
<!DOCTYPE svg PUBLIC "-//W3C//DTD SVG 20010904//EN"
 "http://www.w3.org/TR/2001/REC-SVG-20010904/DTD/svg10.dtd">
<svg version="1.0" xmlns="http://www.w3.org/2000/svg"
 width="199.000000pt" height="193.000000pt" viewBox="0 0 199.000000 193.000000"
 preserveAspectRatio="xMidYMid meet">
<g transform="translate(0.000000,193.000000) scale(0.100000,-0.100000)"
fill="#000000" stroke="none">
<path d="M1067 1768 c-43 -34 -88 -165 -102 -303 -10 -92 -11 -93 -63 -100
-26 -3 -64 -8 -84 -11 l-38 -6 0 71 c0 72 -25 244 -40 271 -17 31 -58 61 -93
67 -56 9 -125 -29 -148 -81 -37 -85 -57 -321 -33 -403 5 -18 -2 -27 -35 -50
-201 -136 -281 -280 -246 -439 42 -194 133 -304 290 -354 22 -7 63 -24 90 -38
80 -40 229 -53 460 -41 139 7 209 15 260 30 239 70 401 163 487 278 54 72 62
106 57 233 -4 90 -4 88 -82 186 -76 96 -244 196 -352 210 l-60 7 -7 85 c-7 82
-13 105 -59 250 -24 74 -30 83 -83 122 -42 30 -91 37 -119 16z m100 -56 c27
-20 76 -127 91 -197 15 -67 30 -199 28 -255 -1 -35 3 -45 16 -48 10 -2 25 3
33 12 43 42 233 -36 339 -139 33 -33 74 -84 90 -114 26 -48 28 -60 24 -125 -5
-74 -20 -110 -79 -194 -17 -23 -47 -51 -67 -63 -20 -11 -53 -31 -71 -45 -42
-30 -62 -28 -78 7 -7 15 -25 35 -40 45 -16 10 -34 23 -41 31 -20 19 -91 35
-128 29 -20 -4 -45 -21 -64 -43 -35 -39 -34 -34 -18 -192 3 -24 1 -24 -87 -27
-49 -2 -129 -6 -177 -9 -116 -6 -178 2 -178 25 0 10 -9 47 -20 83 -22 71 -63
117 -104 117 -45 0 -120 -40 -145 -76 -23 -32 -28 -35 -60 -30 -67 11 -161
131 -186 239 -18 76 -18 180 -1 229 18 49 99 142 161 184 66 45 139 104 144
116 2 7 -9 9 -28 6 -18 -3 -34 -2 -36 2 -11 18 16 280 35 335 25 71 43 93 86
101 47 9 74 -3 89 -39 19 -46 38 -196 32 -242 -20 -138 -20 -145 -4 -150 8 -4
48 1 88 9 41 8 93 12 117 9 66 -9 79 9 80 107 0 106 36 260 67 294 28 30 61
33 92 8z m206 -1126 c41 -17 76 -55 79 -86 3 -22 -4 -26 -92 -51 -103 -30
-102 -31 -120 31 -16 55 -12 77 16 99 31 24 71 27 117 7z m-695 -76 c28 -55
26 -94 -5 -98 -44 -6 -142 59 -143 96 0 20 62 53 95 50 24 -2 34 -11 53 -48z"/>
<path d="M566 1485 c-24 -64 -9 -278 20 -289 21 -8 27 16 19 71 -3 27 -9 90
-11 141 -5 86 -14 112 -28 77z"/>
<path d="M1135 1461 c-8 -28 4 -106 20 -128 11 -14 16 -15 26 -6 18 18 -1 147
-23 151 -9 2 -19 -5 -23 -17z"/>
<path d="M1183 923 c-31 -6 -84 -58 -78 -75 3 -8 28 -32 55 -52 49 -37 80 -42
80 -13 0 16 -37 51 -62 60 -32 11 -15 41 27 49 11 2 20 10 20 17 0 16 -11 20
-42 14z"/>
<path d="M764 819 c8 -81 11 -89 31 -89 19 0 22 17 16 90 -5 59 -8 65 -30 68
-24 4 -24 4 -17 -69z"/>
<path d="M945 683 c-27 -7 -45 -23 -45 -39 0 -21 99 -19 106 1 7 17 -13 46
-30 44 -6 -1 -20 -4 -31 -6z"/>
<path d="M1540 1572 c0 -11 -14 -38 -31 -61 -17 -24 -28 -49 -25 -57 9 -24 88
-124 98 -124 17 0 98 90 98 109 0 11 -24 49 -52 85 -52 65 -88 85 -88 48z m61
-88 c19 -42 19 -47 4 -70 -18 -29 -30 -24 -67 28 l-20 29 28 30 c15 16 29 29
31 29 2 0 13 -21 24 -46z"/>
<path d="M152 1173 c-72 -82 -110 -210 -97 -328 4 -44 11 -65 22 -70 27 -10
32 7 24 75 -9 72 2 167 24 211 8 15 15 34 15 42 0 8 16 31 36 50 20 19 33 40
30 46 -11 17 -19 13 -54 -26z"/>
<path d="M1889 1024 c-11 -14 -10 -19 10 -35 28 -22 47 -24 54 -5 7 17 -19 56
-37 56 -8 0 -20 -7 -27 -16z"/>
<path d="M1942 828 c-7 -7 -12 -25 -12 -40 0 -16 -4 -36 -10 -46 -27 -49 -90
-185 -90 -194 0 -20 -50 -78 -81 -93 -20 -11 -29 -23 -29 -40 0 -21 5 -25 29
-25 31 0 91 42 91 64 0 7 19 50 41 97 43 88 89 219 89 256 0 27 -13 36 -28 21z"/>
<path d="M88 636 c-8 -20 -8 -30 0 -38 19 -19 44 -1 40 29 -4 36 -25 40 -40 9z"/>
<path d="M223 403 c-8 -3 -13 -23 -13 -49 0 -35 -5 -49 -25 -66 -33 -28 -32
-36 7 -40 28 -3 33 -8 42 -48 7 -29 17 -46 29 -48 14 -3 17 4 17 42 0 35 5 48
20 56 31 16 25 49 -10 62 -25 8 -31 17 -36 49 -7 42 -12 49 -31 42z"/>
<path d="M617 262 c-20 -22 -22 -73 -5 -90 31 -31 98 -1 98 44 0 54 -60 83
-93 46z"/>
</g>
</svg>
